<svg xmlns="http://www.w3.org/2000/svg" width="1200" height="680" viewBox="0 0 1200 680">
<defs><marker id="a" markerWidth="10" markerHeight="10" refX="8" refY="3" orient="auto"><path d="M0,0 L0,6 L9,3 z" fill="#39605d"/></marker></defs>
<rect width="1200" height="680" fill="#f4f3ed"/>
<g font-family="Arial,sans-serif" fill="#243c39">
<text x="40" y="48" font-size="28" font-weight="bold">Фотоловушка LoRa · один пост + база</text>
<text x="40" y="79" font-size="17">Архитектура MVP. GPIO, ключи и питание — в docs/wiring.md</text>
<rect x="35" y="110" width="695" height="510" rx="22" fill="#fff" stroke="#a8b9b3"/>
<text x="60" y="145" font-size="22" font-weight="bold">Удалённый узел</text>
<g fill="#e0ece6" stroke="#a8b9b3">
<rect x="65" y="185" width="145" height="70" rx="10"/><rect x="285" y="185" width="180" height="90" rx="10"/>
<rect x="535" y="185" width="160" height="90" rx="10"/><rect x="285" y="330" width="180" height="80" rx="10"/>
<rect x="535" y="330" width="160" height="80" rx="10"/><rect x="65" y="330" width="145" height="80" rx="10"/>
<rect x="65" y="480" width="240" height="85" rx="10"/><rect x="385" y="480" width="270" height="85" rx="10"/>
</g>
<g text-anchor="middle" font-size="19">
<text x="137" y="216">PIR AM312</text><text x="137" y="240" font-size="15">Пробуждение</text>
<text x="375" y="218">ESP32 DevKit</text><text x="375" y="245" font-size="15">Радио + питание</text>
<text x="615" y="220">RFM95W</text><text x="615" y="245" font-size="15">868 МГц + антенна</text>
<text x="375" y="361">ESP32-CAM</text><text x="375" y="388" font-size="15">JPEG 160×120 / NoIR</text>
<text x="615" y="362">ИК 850 нм</text><text x="615" y="388" font-size="15">LED + N-MOSFET</text>
<text x="137" y="362">DS3231</text><text x="137" y="388" font-size="15">Время UTC</text>
<text x="185" y="516">18650 + защита</text><text x="185" y="542" font-size="15">Предохранитель, выключатель</text>
<text x="520" y="516">Boost 5В / 3.3В</text><text x="520" y="542" font-size="15">Камера через P-MOSFET</text>
</g>
<g stroke="#39605d" stroke-width="3" fill="none" marker-end="url(#a)">
<path d="M210 220 H280"/><path d="M465 230 H530"/><path d="M375 328 V280"/>
<path d="M210 370 H250 V256 H280"/><path d="M465 255 H500 V370 H530"/>
<path d="M305 522 H380"/><path d="M520 480 V442 H375 V415"/>
</g>
<text x="385" y="309" font-size="14">UART + ключ питания</text>
<rect x="795" y="110" width="365" height="510" rx="22" fill="#fff" stroke="#a8b9b3"/>
<text x="820" y="145" font-size="22" font-weight="bold">База с интернетом</text>
<g fill="#e0ece6" stroke="#a8b9b3">
<rect x="835" y="195" width="280" height="80" rx="10"/><rect x="835" y="330" width="280" height="80" rx="10"/>
<rect x="835" y="480" width="280" height="85" rx="10"/>
</g>
<g text-anchor="middle" font-size="19">
<text x="975" y="228">RFM95W + ESP32</text><text x="975" y="251" font-size="15">USB радиошлюз</text>
<text x="975" y="362">ПК / мини-ПК + Python</text><text x="975" y="388" font-size="15">SQLite → JPEG → очередь</text>
<text x="975" y="516">SMTP TLS → e-mail</text><text x="975" y="542" font-size="15">Пост, время UTC, вложение</text>
</g>
<g stroke="#39605d" stroke-width="3" fill="none" marker-end="url(#a)">
<path d="M695 210 H830"/><path d="M835 258 H735 V265 H698"/>
<path d="M975 275 V325"/><path d="M975 410 V475"/>
</g>
<text x="734" y="188" font-size="15">LoRa</text><text x="754" y="288" font-size="14">ACK</text>
<text x="40" y="652" font-size="16">3 км требуют полевых испытаний · солнечное питание — отдельный этап · иллюстрация не заменяет электрическую схему</text>
</g></svg>
